{
	"asset":{
		"generator":"Khronos glTF Blender I/O v3.6.27",
		"version":"2.0"
	},
	"extensionsUsed":[
		"KHR_materials_unlit"
	],
	"scene":0,
	"scenes":[
		{
			"name":"Scene",
			"nodes":[
				5
			]
		}
	],
	"nodes":[
		{
			"mesh":0,
			"name":"Cube.000_0"
		},
		{
			"mesh":1,
			"name":"Cube.000_2"
		},
		{
			"children":[
				0,
				1
			],
			"name":"Cube.000"
		},
		{
			"mesh":2,
			"name":"Cube.002_0"
		},
		{
			"children":[
				3
			],
			"name":"Cube.002"
		},
		{
			"children":[
				2,
				4
			],
			"name":"Root",
			"rotation":[
				1,
				0,
				0,
				0
			],
			"scale":[
				-1,
				-1,
				-1
			]
		}
	],
	"materials":[
		{
			"extensions":{
				"KHR_materials_unlit":{}
			},
			"name":"Material.004",
			"pbrMetallicRoughness":{
				"metallicFactor":0,
				"roughnessFactor":0.9
			}
		},
		{
			"doubleSided":true,
			"extensions":{
				"KHR_materials_unlit":{}
			},
			"name":"Material.007",
			"pbrMetallicRoughness":{
				"baseColorFactor":[
					0.9799863696098328,
					0.396070659160614,
					0.396070659160614,
					1
				],
				"metallicFactor":0,
				"roughnessFactor":0.9
			}
		},
		{
			"extensions":{
				"KHR_materials_unlit":{}
			},
			"name":"Material.003",
			"pbrMetallicRoughness":{
				"baseColorFactor":[
					0,
					0,
					0,
					1
				],
				"metallicFactor":0,
				"roughnessFactor":0.9
			}
		}
	],
	"meshes":[
		{
			"name":"Cube.000_0",
			"primitives":[
				{
					"attributes":{
						"POSITION":0,
						"NORMAL":1
					},
					"indices":2,
					"material":0
				}
			]
		},
		{
			"name":"Cube.000_2",
			"primitives":[
				{
					"attributes":{
						"POSITION":3,
						"NORMAL":4
					},
					"indices":5,
					"material":1
				}
			]
		},
		{
			"name":"Cube.002_0",
			"primitives":[
				{
					"attributes":{
						"POSITION":6,
						"NORMAL":7
					},
					"indices":8,
					"material":2
				}
			]
		}
	],
	"accessors":[
		{
			"bufferView":0,
			"componentType":5126,
			"count":82,
			"max":[
				0.04721619188785553,
				0.07141926884651184,
				0.2879957854747772
			],
			"min":[
				-0.07437966018915176,
				-0.06280560791492462,
				-0.07656186819076538
			],
			"type":"VEC3"
		},
		{
			"bufferView":1,
			"componentType":5126,
			"count":82,
			"type":"VEC3"
		},
		{
			"bufferView":2,
			"componentType":5123,
			"count":300,
			"type":"SCALAR"
		},
		{
			"bufferView":3,
			"componentType":5126,
			"count":33,
			"max":[
				0.03024858981370926,
				0.010851673781871796,
				-0.030006499961018562
			],
			"min":[
				-0.024483798071742058,
				-0.023891352117061615,
				-0.07186140865087509
			],
			"type":"VEC3"
		},
		{
			"bufferView":4,
			"componentType":5126,
			"count":33,
			"type":"VEC3"
		},
		{
			"bufferView":5,
			"componentType":5123,
			"count":78,
			"type":"SCALAR"
		},
		{
			"bufferView":6,
			"componentType":5126,
			"count":33,
			"max":[
				0.05841593071818352,
				0.0790000632405281,
				0.2860506772994995
			],
			"min":[
				-0.08291290700435638,
				-0.07332246005535126,
				-0.0875287726521492
			],
			"type":"VEC3"
		},
		{
			"bufferView":7,
			"componentType":5126,
			"count":33,
			"type":"VEC3"
		},
		{
			"bufferView":8,
			"componentType":5123,
			"count":168,
			"type":"SCALAR"
		}
	],
	"bufferViews":[
		{
			"buffer":0,
			"byteLength":984,
			"byteOffset":0,
			"target":34962
		},
		{
			"buffer":0,
			"byteLength":984,
			"byteOffset":984,
			"target":34962
		},
		{
			"buffer":0,
			"byteLength":600,
			"byteOffset":1968,
			"target":34963
		},
		{
			"buffer":0,
			"byteLength":396,
			"byteOffset":2568,
			"target":34962
		},
		{
			"buffer":0,
			"byteLength":396,
			"byteOffset":2964,
			"target":34962
		},
		{
			"buffer":0,
			"byteLength":156,
			"byteOffset":3360,
			"target":34963
		},
		{
			"buffer":0,
			"byteLength":396,
			"byteOffset":3516,
			"target":34962
		},
		{
			"buffer":0,
			"byteLength":396,
			"byteOffset":3912,
			"target":34962
		},
		{
			"buffer":0,
			"byteLength":336,
			"byteOffset":4308,
			"target":34963
		}
	],
	"buffers":[
		{
			"byteLength":4644,
			"uri":"leftpaw.bin"
		}
	]
}
