{
	"asset":{
		"generator":"Khronos glTF Blender I/O v4.0.44",
		"version":"2.0"
	},
	"scene":0,
	"scenes":[
		{
			"name":"Scene",
			"nodes":[
				0,
				1
			]
		}
	],
	"nodes":[
		{
			"mesh":0,
			"name":"Cylinder.007",
			"scale":[
				0.04959563538432121,
				0.4692491292953491,
				0.04959563538432121
			]
		},
		{
			"mesh":1,
			"name":"Cylinder.011",
			"rotation":[
				0,
				0,
				0.7071068286895752,
				0.7071068286895752
			],
			"scale":[
				0.8039839267730713,
				0.029396118596196175,
				0.8039839267730713
			]
		}
	],
	"materials":[
		{
			"doubleSided":true,
			"name":"Material.001",
			"pbrMetallicRoughness":{
				"baseColorFactor":[
					0.8000000715255737,
					0.45196470618247986,
					0.14750029146671295,
					1
				],
				"roughnessFactor":0.5
			}
		},
		{
			"doubleSided":true,
			"name":"Material.002",
			"pbrMetallicRoughness":{
				"baseColorFactor":[
					0.5925828814506531,
					0.5925828814506531,
					0.5925828814506531,
					1
				],
				"roughnessFactor":0.5
			}
		},
		{
			"doubleSided":true,
			"name":"Material.003",
			"pbrMetallicRoughness":{
				"baseColorFactor":[
					0,
					0,
					0,
					1
				],
				"metallicFactor":0,
				"roughnessFactor":0.5
			}
		}
	],
	"meshes":[
		{
			"name":"Cylinder.007",
			"primitives":[
				{
					"attributes":{
						"POSITION":0,
						"NORMAL":1,
						"TEXCOORD_0":2
					},
					"indices":3,
					"material":0
				},
				{
					"attributes":{
						"POSITION":4,
						"NORMAL":5,
						"TEXCOORD_0":6
					},
					"indices":7,
					"material":1
				},
				{
					"attributes":{
						"POSITION":8,
						"NORMAL":9,
						"TEXCOORD_0":10
					},
					"indices":11,
					"material":2
				}
			]
		},
		{
			"name":"Cylinder.013",
			"primitives":[
				{
					"attributes":{
						"POSITION":12,
						"NORMAL":13,
						"TEXCOORD_0":14
					},
					"indices":15,
					"material":1
				}
			]
		}
	],
	"accessors":[
		{
			"bufferView":0,
			"componentType":5126,
			"count":4755,
			"max":[
				44.394073486328125,
				1.2961692810058594,
				2.3877103328704834
			],
			"min":[
				-65.82292938232422,
				-2.666503429412842,
				-36.67605972290039
			],
			"type":"VEC3"
		},
		{
			"bufferView":1,
			"componentType":5126,
			"count":4755,
			"type":"VEC3"
		},
		{
			"bufferView":2,
			"componentType":5126,
			"count":4755,
			"type":"VEC2"
		},
		{
			"bufferView":3,
			"componentType":5123,
			"count":20118,
			"type":"SCALAR"
		},
		{
			"bufferView":4,
			"componentType":5126,
			"count":1299,
			"max":[
				1.4974342584609985,
				1.4399418830871582,
				2.9398441314697266
			],
			"min":[
				-57.749916076660156,
				-1.064510464668274,
				-13.382170677185059
			],
			"type":"VEC3"
		},
		{
			"bufferView":5,
			"componentType":5126,
			"count":1299,
			"type":"VEC3"
		},
		{
			"bufferView":6,
			"componentType":5126,
			"count":1299,
			"type":"VEC2"
		},
		{
			"bufferView":7,
			"componentType":5123,
			"count":5586,
			"type":"SCALAR"
		},
		{
			"bufferView":8,
			"componentType":5126,
			"count":1288,
			"max":[
				-51.61544418334961,
				-0.8573816418647766,
				-5.830599784851074
			],
			"min":[
				-54.79680633544922,
				-0.8573824167251587,
				-11.777154922485352
			],
			"type":"VEC3"
		},
		{
			"bufferView":9,
			"componentType":5126,
			"count":1288,
			"type":"VEC3"
		},
		{
			"bufferView":10,
			"componentType":5126,
			"count":1288,
			"type":"VEC2"
		},
		{
			"bufferView":11,
			"componentType":5123,
			"count":3690,
			"type":"SCALAR"
		},
		{
			"bufferView":12,
			"componentType":5126,
			"count":768,
			"max":[
				0.7307673692703247,
				-14.728259086608887,
				0.061013076454401016
			],
			"min":[
				-0.6263976097106934,
				-185.68844604492188,
				-0.07882767915725708
			],
			"type":"VEC3"
		},
		{
			"bufferView":13,
			"componentType":5126,
			"count":768,
			"type":"VEC3"
		},
		{
			"bufferView":14,
			"componentType":5126,
			"count":768,
			"type":"VEC2"
		},
		{
			"bufferView":15,
			"componentType":5123,
			"count":4188,
			"type":"SCALAR"
		}
	],
	"bufferViews":[
		{
			"buffer":0,
			"byteLength":57060,
			"byteOffset":0,
			"target":34962
		},
		{
			"buffer":0,
			"byteLength":57060,
			"byteOffset":57060,
			"target":34962
		},
		{
			"buffer":0,
			"byteLength":38040,
			"byteOffset":114120,
			"target":34962
		},
		{
			"buffer":0,
			"byteLength":40236,
			"byteOffset":152160,
			"target":34963
		},
		{
			"buffer":0,
			"byteLength":15588,
			"byteOffset":192396,
			"target":34962
		},
		{
			"buffer":0,
			"byteLength":15588,
			"byteOffset":207984,
			"target":34962
		},
		{
			"buffer":0,
			"byteLength":10392,
			"byteOffset":223572,
			"target":34962
		},
		{
			"buffer":0,
			"byteLength":11172,
			"byteOffset":233964,
			"target":34963
		},
		{
			"buffer":0,
			"byteLength":15456,
			"byteOffset":245136,
			"target":34962
		},
		{
			"buffer":0,
			"byteLength":15456,
			"byteOffset":260592,
			"target":34962
		},
		{
			"buffer":0,
			"byteLength":10304,
			"byteOffset":276048,
			"target":34962
		},
		{
			"buffer":0,
			"byteLength":7380,
			"byteOffset":286352,
			"target":34963
		},
		{
			"buffer":0,
			"byteLength":9216,
			"byteOffset":293732,
			"target":34962
		},
		{
			"buffer":0,
			"byteLength":9216,
			"byteOffset":302948,
			"target":34962
		},
		{
			"buffer":0,
			"byteLength":6144,
			"byteOffset":312164,
			"target":34962
		},
		{
			"buffer":0,
			"byteLength":8376,
			"byteOffset":318308,
			"target":34963
		}
	],
	"buffers":[
		{
			"byteLength":326684,
			"uri":"trombone.bin"
		}
	]
}
