{
	"asset":{
		"generator":"Khronos glTF Blender I/O v4.0.44",
		"version":"2.0"
	},
	"scene":0,
	"scenes":[
		{
			"name":"Scene",
			"nodes":[
				0
			]
		}
	],
	"nodes":[
		{
			"mesh":0,
			"name":"Cylinder.001",
			"rotation":[
				0,
				0,
				0.7071068286895752,
				0.7071068286895752
			],
			"scale":[
				0.8039839267730713,
				0.029396118596196175,
				0.8039839267730713
			]
		}
	],
	"materials":[
		{
			"doubleSided":true,
			"name":"Material.001",
			"pbrMetallicRoughness":{
				"baseColorFactor":[
					0.8000000715255737,
					0.45196470618247986,
					0.14750029146671295,
					1
				],
				"roughnessFactor":0.5
			}
		},
		{
			"doubleSided":true,
			"name":"Material.002",
			"pbrMetallicRoughness":{
				"baseColorFactor":[
					0.5925828814506531,
					0.5925828814506531,
					0.5925828814506531,
					1
				],
				"roughnessFactor":0.5
			}
		},
		{
			"doubleSided":true,
			"name":"Material.003",
			"pbrMetallicRoughness":{
				"baseColorFactor":[
					0,
					0,
					0,
					1
				],
				"metallicFactor":0,
				"roughnessFactor":0.5
			}
		}
	],
	"meshes":[
		{
			"name":"Cylinder.001",
			"primitives":[
				{
					"attributes":{
						"POSITION":0,
						"NORMAL":1,
						"TEXCOORD_0":2
					},
					"indices":3,
					"material":0
				},
				{
					"attributes":{
						"POSITION":4,
						"NORMAL":5,
						"TEXCOORD_0":6
					},
					"indices":7,
					"material":1
				},
				{
					"attributes":{
						"POSITION":8,
						"NORMAL":9,
						"TEXCOORD_0":10
					},
					"indices":11,
					"material":2
				}
			]
		}
	],
	"accessors":[
		{
			"bufferView":0,
			"componentType":5126,
			"count":2105,
			"max":[
				0.7565155029296875,
				-16.321121215820312,
				0.09591873735189438
			],
			"min":[
				-0.6539332866668701,
				-210.79685974121094,
				-0.11383139342069626
			],
			"type":"VEC3"
		},
		{
			"bufferView":1,
			"componentType":5126,
			"count":2105,
			"type":"VEC3"
		},
		{
			"bufferView":2,
			"componentType":5126,
			"count":2105,
			"type":"VEC2"
		},
		{
			"bufferView":3,
			"componentType":5123,
			"count":9600,
			"type":"SCALAR"
		},
		{
			"bufferView":4,
			"componentType":5126,
			"count":64,
			"max":[
				-0.12892591953277588,
				-192.52662658691406,
				0.15064871311187744
			],
			"min":[
				-0.35038307309150696,
				-203.40121459960938,
				0.037847138941287994
			],
			"type":"VEC3"
		},
		{
			"bufferView":5,
			"componentType":5126,
			"count":64,
			"type":"VEC3"
		},
		{
			"bufferView":6,
			"componentType":5126,
			"count":64,
			"type":"VEC2"
		},
		{
			"bufferView":7,
			"componentType":5123,
			"count":102,
			"type":"SCALAR"
		},
		{
			"bufferView":8,
			"componentType":5126,
			"count":164,
			"max":[
				0.17908233404159546,
				-209.64541625976562,
				0.04561705142259598
			],
			"min":[
				0.05953258275985718,
				-212.87135314941406,
				-0.06808166950941086
			],
			"type":"VEC3"
		},
		{
			"bufferView":9,
			"componentType":5126,
			"count":164,
			"type":"VEC3"
		},
		{
			"bufferView":10,
			"componentType":5126,
			"count":164,
			"type":"VEC2"
		},
		{
			"bufferView":11,
			"componentType":5123,
			"count":186,
			"type":"SCALAR"
		}
	],
	"bufferViews":[
		{
			"buffer":0,
			"byteLength":25260,
			"byteOffset":0,
			"target":34962
		},
		{
			"buffer":0,
			"byteLength":25260,
			"byteOffset":25260,
			"target":34962
		},
		{
			"buffer":0,
			"byteLength":16840,
			"byteOffset":50520,
			"target":34962
		},
		{
			"buffer":0,
			"byteLength":19200,
			"byteOffset":67360,
			"target":34963
		},
		{
			"buffer":0,
			"byteLength":768,
			"byteOffset":86560,
			"target":34962
		},
		{
			"buffer":0,
			"byteLength":768,
			"byteOffset":87328,
			"target":34962
		},
		{
			"buffer":0,
			"byteLength":512,
			"byteOffset":88096,
			"target":34962
		},
		{
			"buffer":0,
			"byteLength":204,
			"byteOffset":88608,
			"target":34963
		},
		{
			"buffer":0,
			"byteLength":1968,
			"byteOffset":88812,
			"target":34962
		},
		{
			"buffer":0,
			"byteLength":1968,
			"byteOffset":90780,
			"target":34962
		},
		{
			"buffer":0,
			"byteLength":1312,
			"byteOffset":92748,
			"target":34962
		},
		{
			"buffer":0,
			"byteLength":372,
			"byteOffset":94060,
			"target":34963
		}
	],
	"buffers":[
		{
			"byteLength":94432,
			"uri":"trombone_slide.bin"
		}
	]
}
